<svg width="18" height="22" viewBox="0 0 18 22" fill="none" xmlns="http://www.w3.org/2000/svg">
<path d="M3.78516 21.5938C2.71094 21.5938 1.89388 21.3138 1.33398 20.7539C0.780599 20.194 0.503906 19.3737 0.503906 18.293V3.61523C0.503906 2.54102 0.780599 1.7207 1.33398 1.1543C1.89388 0.587891 2.71094 0.304688 3.78516 0.304688H8.54102C8.97721 0.304688 9.36133 0.33724 9.69336 0.402344C10.0254 0.460938 10.3281 0.568359 10.6016 0.724609C10.8815 0.880859 11.1647 1.10872 11.4512 1.4082L16.3926 6.41797C16.6921 6.72396 16.9199 7.01693 17.0762 7.29688C17.2389 7.57682 17.3496 7.88607 17.4082 8.22461C17.4668 8.55664 17.4961 8.96029 17.4961 9.43555V18.293C17.4961 19.3737 17.2161 20.194 16.6562 20.7539C16.0964 21.3138 15.2826 21.5938 14.2148 21.5938H3.78516ZM4 19.4258H13.9902C14.4395 19.4258 14.7715 19.3118 14.9863 19.084C15.2077 18.8626 15.3184 18.5371 15.3184 18.1074V9.8457H10.2891C9.52734 9.8457 8.96094 9.66016 8.58984 9.28906C8.21875 8.91797 8.0332 8.35156 8.0332 7.58984V2.48242H4.00977C3.56055 2.48242 3.22526 2.59635 3.00391 2.82422C2.78255 3.05208 2.67188 3.3776 2.67188 3.80078V18.1074C2.67188 18.5371 2.78255 18.8626 3.00391 19.084C3.22526 19.3118 3.55729 19.4258 4 19.4258ZM10.4746 8H15.084L9.87891 2.7168V7.4043C9.87891 7.61263 9.92448 7.76562 10.0156 7.86328C10.1133 7.95443 10.2663 8 10.4746 8Z" fill="#B9B9BA"/>
</svg>
