<svg width="15" height="18" viewBox="0 0 15 18" fill="none" xmlns="http://www.w3.org/2000/svg">
<path d="M3.53125 17.8203C2.69271 17.8203 2.0599 17.6042 1.63281 17.1719C1.20573 16.7396 0.992188 16.1016 0.992188 15.2578V3.46875C0.992188 2.63021 1.20573 1.99479 1.63281 1.5625C2.0599 1.125 2.69271 0.90625 3.53125 0.90625H7.29688C7.625 0.90625 7.91146 0.929688 8.15625 0.976562C8.40104 1.01823 8.6276 1.09896 8.83594 1.21875C9.04427 1.33333 9.25781 1.5026 9.47656 1.72656L13.5703 5.89062C13.7995 6.11979 13.9714 6.34115 14.0859 6.55469C14.2057 6.76302 14.2865 6.99479 14.3281 7.25C14.3698 7.5 14.3906 7.80729 14.3906 8.17188V15.2578C14.3906 16.0964 14.1771 16.7318 13.75 17.1641C13.3229 17.6016 12.6901 17.8203 11.8516 17.8203H3.53125ZM3.65625 16.2812H11.7266C12.1068 16.2812 12.3906 16.1849 12.5781 15.9922C12.7656 15.7995 12.8594 15.5234 12.8594 15.1641V8.38281H8.64844C8.09115 8.38281 7.67448 8.24479 7.39844 7.96875C7.1276 7.69271 6.99219 7.27604 6.99219 6.71875V2.4375H3.66406C3.28385 2.4375 3 2.53646 2.8125 2.73438C2.625 2.93229 2.53125 3.21094 2.53125 3.57031V15.1641C2.53125 15.5234 2.625 15.7995 2.8125 15.9922C3 16.1849 3.28125 16.2812 3.65625 16.2812ZM8.79688 7.03125H12.6484L8.34375 2.64844V6.57031C8.34375 6.73177 8.3776 6.84896 8.44531 6.92188C8.51823 6.99479 8.63542 7.03125 8.79688 7.03125Z" fill="#007AFF"/>
</svg>
