<svg width="18" height="18" fill="none" xmlns="http://www.w3.org/2000/svg"><path d="M9.047 17.009c-.575 0-1.117-.2-1.627-.598-.503-.398-.949-.957-1.336-1.677-.382-.719-.683-1.563-.905-2.531a14.692 14.692 0 0 1-.324-3.18c0-1.145.108-2.205.324-3.179.222-.98.523-1.829.905-2.548.382-.725.825-1.287 1.328-1.685.51-.399 1.054-.598 1.635-.598s1.124.2 1.627.598c.51.398.955.96 1.337 1.685.387.72.689 1.569.905 2.548.215.974.323 2.034.323 3.18 0 1.145-.11 2.205-.332 3.179-.216.968-.517 1.812-.905 2.531-.381.72-.827 1.279-1.336 1.677-.504.399-1.043.598-1.619.598zm0-14.991c-.404 0-.791.188-1.162.564-.37.37-.7.88-.988 1.527-.287.648-.514 1.395-.68 2.242a13.787 13.787 0 0 0-.25 2.672c0 .93.084 1.813.25 2.648.166.836.393 1.58.68 2.233.288.648.617 1.157.988 1.528.371.376.758.564 1.162.564.404 0 .792-.188 1.162-.564.371-.371.7-.88.988-1.528.288-.653.515-1.397.68-2.233.167-.835.25-1.718.25-2.648 0-.94-.083-1.831-.25-2.672-.165-.847-.392-1.594-.68-2.242-.287-.647-.617-1.156-.987-1.527-.371-.376-.759-.564-1.163-.564zm-.54-.889h1.088v15.722H8.508V1.13zm.54 10.999c.853 0 1.66.072 2.424.216a9.27 9.27 0 0 1 2.059.606c.614.26 1.115.567 1.502.921l-.838.69a5.078 5.078 0 0 0-1.32-.731 7.849 7.849 0 0 0-1.735-.457 12.972 12.972 0 0 0-2.092-.158c-.752 0-1.452.053-2.1.158-.642.1-1.22.252-1.735.457-.509.199-.946.442-1.311.73l-.838-.689c.387-.354.885-.661 1.494-.921a9.436 9.436 0 0 1 2.067-.606 13.077 13.077 0 0 1 2.423-.216zm7.662-3.669v1.087H1.386V8.46h15.323zM9.047 5.927c-.852 0-1.66-.069-2.423-.207a10.085 10.085 0 0 1-2.067-.606c-.61-.266-1.107-.576-1.495-.93l.839-.689c.365.288.802.534 1.311.739.515.2 1.093.351 1.735.456.648.1 1.348.15 2.1.15.753 0 1.45-.05 2.092-.15a8.507 8.507 0 0 0 1.735-.456 5.26 5.26 0 0 0 1.32-.739l.838.69c-.387.353-.888.663-1.502.929a9.9 9.9 0 0 1-2.059.606c-.764.138-1.571.207-2.424.207zm0 11.547a8.151 8.151 0 0 1-3.27-.664 8.668 8.668 0 0 1-2.698-1.835 8.668 8.668 0 0 1-1.834-2.698 8.15 8.15 0 0 1-.664-3.27c0-1.157.22-2.244.664-3.262A8.712 8.712 0 0 1 3.07 3.039a8.669 8.669 0 0 1 2.698-1.835A8.151 8.151 0 0 1 9.039.54c1.157 0 2.247.221 3.27.664a8.64 8.64 0 0 1 2.707 1.835 8.64 8.64 0 0 1 1.834 2.706 8.092 8.092 0 0 1 .664 3.262 8.15 8.15 0 0 1-.664 3.27 8.668 8.668 0 0 1-1.834 2.698 8.64 8.64 0 0 1-2.706 1.835 8.093 8.093 0 0 1-3.263.664zm0-1.13a6.985 6.985 0 0 0 2.83-.58 7.454 7.454 0 0 0 2.342-1.586 7.452 7.452 0 0 0 1.585-2.34 6.984 6.984 0 0 0 .581-2.831 6.984 6.984 0 0 0-.58-2.83 7.384 7.384 0 0 0-1.595-2.342 7.453 7.453 0 0 0-2.34-1.585 6.984 6.984 0 0 0-2.83-.581 6.984 6.984 0 0 0-2.831.581 7.453 7.453 0 0 0-2.341 1.585 7.644 7.644 0 0 0-1.586 2.341 7.071 7.071 0 0 0-.573 2.83c0 1.002.191 1.946.573 2.831a7.57 7.57 0 0 0 1.594 2.341 7.453 7.453 0 0 0 2.34 1.586 6.985 6.985 0 0 0 2.831.58z" fill="#000"/></svg>