<svg width="56" height="56" viewBox="0 0 56 56" fill="none" xmlns="http://www.w3.org/2000/svg">
<rect width="56" height="56" rx="28" fill="#007AFF"/>
<path fill-rule="evenodd" clip-rule="evenodd" d="M43.0929 22.4891L40.5126 16.4684C40.13 15.5757 39.9387 15.1294 39.6306 14.8017C39.3583 14.5121 39.022 14.2903 38.6485 14.1541C38.226 14 37.7404 14 36.7692 14H19.2312C18.2599 14 17.7743 14 17.3518 14.1541C16.9784 14.2903 16.642 14.5121 16.3697 14.8017C16.0616 15.1294 15.8703 15.5757 15.4877 16.4684L12.9074 22.4891H43.0929ZM15.2729 29.9353C15.9672 30.19 16.7174 30.3291 17.5002 30.3291C18.7895 30.3291 19.9917 29.9506 21.0002 29.3004C22.0086 29.9506 23.2108 30.3291 24.5002 30.3291C25.7895 30.3291 26.9917 29.9506 28.0002 29.3004C29.0086 29.9506 30.2108 30.3291 31.5002 30.3291C32.7895 30.3291 33.9917 29.9506 35.0002 29.3004C36.0086 29.9506 37.2108 30.3291 38.5002 30.3291C39.2829 30.3291 40.0331 30.19 40.7274 29.9353V37.9273C40.7274 39.3529 40.7274 40.0657 40.45 40.6102C40.206 41.0891 39.8166 41.4785 39.3376 41.7226C38.7931 42 38.0803 42 36.6547 42H19.3456C17.92 42 17.2073 42 16.6627 41.7226C16.1838 41.4785 15.7944 41.0891 15.5503 40.6102C15.2729 40.0657 15.2729 39.3529 15.2729 37.9273V29.9353ZM17.8183 35.1273C17.8183 34.4145 17.8183 34.0581 17.957 33.7858C18.079 33.5464 18.2737 33.3516 18.5132 33.2296C18.7855 33.0909 19.1419 33.0909 19.8547 33.0909H24.691C25.4038 33.0909 25.7602 33.0909 26.0325 33.2296C26.2719 33.3516 26.4666 33.5464 26.5887 33.7858C26.7274 34.0581 26.7274 34.4145 26.7274 35.1273V37.4182C26.7274 38.131 26.7274 38.4874 26.5887 38.7596C26.4666 38.9991 26.2719 39.1938 26.0325 39.3158C25.7602 39.4545 25.4038 39.4545 24.691 39.4545H19.8547C19.1419 39.4545 18.7855 39.4545 18.5132 39.3158C18.2737 39.1938 18.079 38.9991 17.957 38.7596C17.8183 38.4874 17.8183 38.131 17.8183 37.4182V35.1273ZM17.5001 28.6364C14.9711 28.6364 12.9015 26.6694 12.7378 24.1818H43.2624C43.0986 26.6694 41.0291 28.6364 38.5001 28.6364C37.1172 28.6364 35.8717 28.0482 35.0001 27.1085C34.1284 28.0482 32.8829 28.6364 31.5001 28.6364C30.1172 28.6364 28.8717 28.0482 28.0001 27.1085C27.1284 28.0482 25.8829 28.6364 24.5001 28.6364C23.1172 28.6364 21.8717 28.0483 21.0001 27.1085C20.1284 28.0483 18.8829 28.6364 17.5001 28.6364Z" fill="white"/>
</svg>
