<svg width="25" height="25" fill="none" xmlns="http://www.w3.org/2000/svg"><path d="M.84 10.453c0-1.328.25-2.578.75-3.75a9.6 9.6 0 0 1 2.086-3.082 9.773 9.773 0 0 1 3.082-2.086 9.484 9.484 0 0 1 3.762-.75 9.4 9.4 0 0 1 3.75.75 9.736 9.736 0 0 1 3.093 2.086 9.6 9.6 0 0 1 2.086 3.082c.5 1.172.75 2.422.75 3.75 0 1-.148 1.953-.445 2.86a9.38 9.38 0 0 1-1.219 2.496l5.05 5.074a2 2 0 0 1 .423.644c.101.242.152.5.152.774 0 .375-.086.715-.258 1.02a1.953 1.953 0 0 1-1.734.984c-.266 0-.524-.047-.774-.14a1.86 1.86 0 0 1-.667-.434l-5.098-5.098c-.734.469-1.535.84-2.402 1.113a9.116 9.116 0 0 1-2.707.399c-1.336 0-2.59-.25-3.762-.75a9.773 9.773 0 0 1-3.082-2.086 9.736 9.736 0 0 1-2.086-3.094 9.484 9.484 0 0 1-.75-3.762zm2.847 0c0 .945.176 1.832.528 2.66a7.022 7.022 0 0 0 3.644 3.645 6.735 6.735 0 0 0 2.66.527c.946 0 1.829-.176 2.649-.527a6.984 6.984 0 0 0 2.18-1.477 6.857 6.857 0 0 0 1.464-2.168 6.61 6.61 0 0 0 .54-2.66c0-.937-.18-1.816-.54-2.637a6.82 6.82 0 0 0-1.464-2.18 6.728 6.728 0 0 0-2.18-1.476 6.652 6.652 0 0 0-2.648-.527c-.946 0-1.832.176-2.66.527A6.762 6.762 0 0 0 5.69 5.637a6.983 6.983 0 0 0-1.476 2.18c-.352.82-.527 1.699-.527 2.636z" fill="#B9B9BA"/></svg>