<svg width="56" height="56" viewBox="0 0 56 56" fill="none" xmlns="http://www.w3.org/2000/svg">
<g id="TON">
<rect width="56" height="56" rx="28" fill="black"/>
<path id="Shape" d="M37.5633 15.3999H18.4417C14.9258 15.3999 12.6975 19.1925 14.4662 22.2583L26.2674 42.7131C27.0375 44.0487 28.9675 44.0487 29.7375 42.7131L41.5412 22.2583C43.3075 19.1973 41.0791 15.3999 37.5657 15.3999H37.5633ZM26.2578 36.5791L23.6877 31.6049L17.4863 20.5136C17.0772 19.8037 17.5826 18.8941 18.4393 18.8941H26.2554V36.5815L26.2578 36.5791ZM38.5138 20.5112L32.3148 31.6073L29.7447 36.5791V18.8917H37.5609C38.4176 18.8917 38.9229 19.8013 38.5138 20.5112Z" fill="white"/>
</g>
</svg>
