<svg width="56" height="56" viewBox="0 0 56 56" fill="none" xmlns="http://www.w3.org/2000/svg">
<g id="Default (Solid)">
<rect width="56" height="56" rx="28" fill="#0099FF"/>
<path id="Union" fill-rule="evenodd" clip-rule="evenodd" d="M12.7273 25.945C12.7273 22.2094 12.7273 20.3415 13.4543 18.9147C14.0938 17.6596 15.1142 16.6392 16.3693 15.9997C17.7961 15.2727 19.664 15.2727 23.3996 15.2727H31.8368C35.5725 15.2727 37.4403 15.2727 38.8672 15.9997C40.1223 16.6392 41.1427 17.6596 41.7822 18.9147C41.9076 19.1608 42.0113 19.42 42.0972 19.6997H37.5731C35.5397 19.6997 34.5229 19.6997 33.6927 19.9392C31.6733 20.5216 30.0946 22.1003 29.5122 24.1196C29.2727 24.9499 29.2727 25.9666 29.2727 28.0001C29.2727 30.0335 29.2727 31.0503 29.5122 31.8806C30.0946 33.8999 31.6733 35.4786 33.6927 36.061C34.5229 36.3005 35.5397 36.3005 37.5731 36.3005H42.0971C42.0113 36.5801 41.9075 36.8392 41.7822 37.0853C41.1427 38.3403 40.1223 39.3607 38.8672 40.0002C37.4403 40.7272 35.5725 40.7272 31.8368 40.7272H23.3996C19.664 40.7272 17.7961 40.7272 16.3693 40.0002C15.1142 39.3607 14.0938 38.3403 13.4543 37.0853C12.7273 35.6584 12.7273 33.7906 12.7273 30.0549V25.945ZM31.4788 27.9999C31.4788 25.9514 31.4788 24.9272 31.8548 24.1351C32.2392 23.3255 32.8913 22.6734 33.7009 22.289C34.4929 21.913 35.5172 21.913 37.5657 21.913H39.7312C41.7797 21.913 42.804 21.913 43.596 22.289C44.4057 22.6734 45.0578 23.3255 45.4421 24.1351C45.8182 24.9272 45.8182 25.9514 45.8182 27.9999C45.8182 30.0485 45.8182 31.0727 45.4421 31.8647C45.0578 32.6744 44.4057 33.3265 43.596 33.7108C42.804 34.0869 41.7797 34.0869 39.7312 34.0869H37.5657C35.5172 34.0869 34.4929 34.0869 33.7009 33.7108C32.8913 33.3265 32.2392 32.6744 31.8548 31.8647C31.4788 31.0727 31.4788 30.0485 31.4788 27.9999ZM38.6485 28C38.6485 29.2224 37.6608 30.2134 36.4424 30.2134C35.2241 30.2134 34.2364 29.2224 34.2364 28C34.2364 26.7776 35.2241 25.7866 36.4424 25.7866C37.6608 25.7866 38.6485 26.7776 38.6485 28Z" fill="white"/>
</g>
</svg>
